<mxfile host="Electron" agent="Mozilla/5.0 (Windows NT 10.0; Win64; x64) AppleWebKit/537.36 (KHTML, like Gecko) draw.io/24.7.5 Chrome/126.0.6478.183 Electron/31.3.0 Safari/537.36" version="24.7.5">
  <diagram id="R2lEEEUBdFMjLlhIrx00" name="Page-1">
    <mxGraphModel dx="1727" dy="1090" grid="1" gridSize="10" guides="1" tooltips="1" connect="1" arrows="1" fold="1" page="1" pageScale="1" pageWidth="850" pageHeight="1100" math="0" shadow="0" extFonts="Permanent Marker^https://fonts.googleapis.com/css?family=Permanent+Marker">
      <root>
        <mxCell id="0" />
        <mxCell id="1" parent="0" />
        <mxCell id="nDcDVlaaJ3_jK_JnXPMN-1" value="Habito" style="rounded=1;whiteSpace=wrap;html=1;" vertex="1" parent="1">
          <mxGeometry x="420" y="320" width="120" height="60" as="geometry" />
        </mxCell>
        <mxCell id="nDcDVlaaJ3_jK_JnXPMN-4" style="edgeStyle=orthogonalEdgeStyle;rounded=0;orthogonalLoop=1;jettySize=auto;html=1;exitX=1;exitY=0.5;exitDx=0;exitDy=0;entryX=0;entryY=0.5;entryDx=0;entryDy=0;endArrow=ERmany;endFill=0;" edge="1" parent="1" source="nDcDVlaaJ3_jK_JnXPMN-2" target="nDcDVlaaJ3_jK_JnXPMN-1">
          <mxGeometry relative="1" as="geometry" />
        </mxCell>
        <mxCell id="nDcDVlaaJ3_jK_JnXPMN-5" style="edgeStyle=orthogonalEdgeStyle;rounded=0;orthogonalLoop=1;jettySize=auto;html=1;exitX=0.5;exitY=1;exitDx=0;exitDy=0;entryX=0.5;entryY=0;entryDx=0;entryDy=0;endArrow=none;endFill=0;" edge="1" parent="1" source="nDcDVlaaJ3_jK_JnXPMN-2" target="nDcDVlaaJ3_jK_JnXPMN-3">
          <mxGeometry relative="1" as="geometry" />
        </mxCell>
        <mxCell id="nDcDVlaaJ3_jK_JnXPMN-2" value="Usuario" style="rounded=1;whiteSpace=wrap;html=1;" vertex="1" parent="1">
          <mxGeometry x="90" y="320" width="120" height="60" as="geometry" />
        </mxCell>
        <mxCell id="nDcDVlaaJ3_jK_JnXPMN-3" value="Supervisor" style="rounded=1;whiteSpace=wrap;html=1;" vertex="1" parent="1">
          <mxGeometry x="90" y="530" width="120" height="60" as="geometry" />
        </mxCell>
      </root>
    </mxGraphModel>
  </diagram>
</mxfile>
